<?xml version="1.0" encoding="utf-8"?>
<!-- Generator: Adobe Illustrator 19.0.0, SVG Export Plug-In . SVG Version: 6.00 Build 0)  -->
<svg version="1.1" id="Layer_1" xmlns="http://www.w3.org/2000/svg" xmlns:xlink="http://www.w3.org/1999/xlink" x="0px" y="0px"
	 viewBox="-635 398.4 327.9 104.6" style="enable-background:new -635 398.4 327.9 104.6;" xml:space="preserve">
<title>logo-black</title>
<g>
	<path d="M-627.4,478.4V422h11.4v25l23-25h15.3l-21.2,22l22.4,34.4h-14.7l-15.5-26.5l-9.2,9.4v17H-627.4z"/>
	<path d="M-570.7,422h11.4v30.5c0,4.8,0.1,8,0.4,9.4c0.5,2.3,1.6,4.2,3.5,5.6s4.3,2.1,7.5,2.1c3.2,0,5.7-0.7,7.3-2
		c1.6-1.3,2.6-2.9,3-4.9c0.3-1.9,0.5-5.1,0.5-9.6V422h11.4v29.6c0,6.8-0.3,11.6-0.9,14.3c-0.6,2.8-1.8,5.2-3.4,7.1
		c-1.7,1.9-3.9,3.5-6.6,4.6c-2.8,1.1-6.4,1.7-10.8,1.7c-5.4,0-9.5-0.6-12.3-1.9c-2.8-1.2-5-2.9-6.6-4.8c-1.6-2-2.7-4.1-3.2-6.3
		c-0.7-3.2-1.1-8-1.1-14.3V422z"/>
	<path d="M-513.7,478.4V422h24c6,0,10.4,0.5,13.1,1.5c2.7,1,4.9,2.8,6.6,5.4c1.6,2.6,2.5,5.6,2.5,8.9c0,4.2-1.2,7.7-3.7,10.5
		s-6.2,4.5-11.2,5.2c2.5,1.4,4.5,3,6.1,4.7c1.6,1.7,3.8,4.8,6.5,9.2l6.9,11h-13.6l-8.2-12.3c-2.9-4.4-4.9-7.1-6-8.3
		c-1.1-1.1-2.2-1.9-3.4-2.3c-1.2-0.4-3.1-0.6-5.7-0.6h-2.3v23.5H-513.7z M-502.3,445.9h8.4c5.5,0,8.9-0.2,10.2-0.7s2.4-1.3,3.2-2.4
		c0.8-1.1,1.2-2.5,1.2-4.2c0-1.9-0.5-3.4-1.5-4.6c-1-1.2-2.4-1.9-4.3-2.2c-0.9-0.1-3.7-0.2-8.3-0.2h-8.9V445.9z"/>
	<path d="M-406,478.4h-12.4l-4.9-12.8h-22.5l-4.7,12.8h-12.1l22-56.4h12L-406,478.4z M-426.9,456.1l-7.8-20.9l-7.6,20.9H-426.9z"/>
	<path d="M-393.1,478.4v-46.9h-16.7V422h44.8v9.5h-16.7v46.9H-393.1z"/>
	<path d="M-357.6,478.4V422h41.8v9.5h-30.4v12.5h28.3v9.5h-28.3v15.4h31.5v9.5H-357.6z"/>
</g>
</svg>
