<svg id="Layer_1" data-name="Layer 1" xmlns="http://www.w3.org/2000/svg" viewBox="0 0 164 49"><defs><style>.cls-1,.cls-2{fill:#4b4b4d;}.cls-2{fill-rule:evenodd;}</style></defs><title>Untitled-2</title><path class="cls-1" d="M139.23,34.8h15.52V30.5H144.5V26.32h8.57V22.08H144.5v-4h10.19V13.81H139.23Zm-14.43,0h5.28V18H136v-4.2H118.86V18h5.94Zm-18.13-8,2.44-7.6h.09l2.42,7.6Zm-7.57,8h5l1.29-3.92h7.51l1.27,3.92h5.36l-7.36-21h-5.63ZM85.27,23.49V17.93h3.24c1.88,0,3.06,1,3.06,2.76s-1.15,2.8-3.06,2.8ZM80,34.8h5.27V27.38h2.38l4.16,7.42h5.74l-4.8-8.19a6.42,6.42,0,0,0,3.94-6.18c0-3.89-2.73-6.62-7.51-6.62H80Zm-13,.35c4.91,0,8.8-2.76,8.8-8V13.81H70.64V27c0,2.5-1.27,3.82-3.48,3.82S63.57,29.35,63.57,27V13.81H58.33V27.35c0,5.27,3.33,7.8,8.66,7.8m-29.8-.35h5.27V28.67L45,25.85l5,8.95h5.74l-7-12.57,6.65-8.42H49.74l-7.28,9.51V13.81H37.19Z"/><path class="cls-2" d="M13.34,19.21H23.87V29.74H13.34Zm-1-1H24.87V30.75H12.33Z"/><path class="cls-2" d="M10.82,16.7H26.38V32.26H10.82Zm-.7-.7h17V33h-17Z"/><path class="cls-2" d="M8.41,14.29H28.79V34.67H8.41Zm-.48-.49H29.28V35.15H7.93Z"/></svg>